HIERARCHY
ROOT Hips
{
  OFFSET -102.467 93.6631 130.069
  CHANNELS 6 Xposition Yposition Zposition Zrotation Xrotation Yrotation
  JOINT LeftUpLeg
  {
    OFFSET 8.64259 1.95398 -2.38835
    CHANNELS 3 Zrotation Xrotation Yrotation
    JOINT LeftLeg
    {
      OFFSET 43.7702 0 0
      CHANNELS 3 Zrotation Xrotation Yrotation
      JOINT LeftFoot
      {
        OFFSET 40.6238 0 0
        CHANNELS 3 Zrotation Xrotation Yrotation
        JOINT LeftToeBase
        {
          OFFSET 12.7242 0 0
          CHANNELS 3 Zrotation Xrotation Yrotation
          End Site
          {
            OFFSET 0 0 0
          }
        }
      }
    }
  }
  JOINT RightUpLeg
  {
    OFFSET -8.2249 1.95398 -2.59336
    CHANNELS 3 Zrotation Xrotation Yrotation
    JOINT RightLeg
    {
      OFFSET 43.5653 0 0
      CHANNELS 3 Zrotation Xrotation Yrotation
      JOINT RightFoot
      {
        OFFSET 40.6238 0 0
        CHANNELS 3 Zrotation Xrotation Yrotation
        JOINT RightToeBase
        {
          OFFSET 12.7242 0 0
          CHANNELS 3 Zrotation Xrotation Yrotation
          End Site
          {
            OFFSET 0 0 0
          }
        }
      }
    }
  }
  JOINT Spine
  {
    OFFSET 0.165834 0.87714 6.61349
    CHANNELS 3 Zrotation Xrotation Yrotation
    JOINT Spine1
    {
      OFFSET 7.38963 1.71661e-005 0
      CHANNELS 3 Zrotation Xrotation Yrotation
      JOINT Spine2
      {
        OFFSET 11.9445 1.14441e-005 0
        CHANNELS 3 Zrotation Xrotation Yrotation
        JOINT Spine3
        {
          OFFSET 14.7254 4.19617e-005 0
          CHANNELS 3 Zrotation Xrotation Yrotation
          JOINT Spine4
          {
            OFFSET 10.9679 0 0
            CHANNELS 3 Zrotation Xrotation Yrotation
            JOINT RightShoulder
            {
              OFFSET 2.46616 -1.6653 3.69651
              CHANNELS 3 Zrotation Xrotation Yrotation
              JOINT RightArm
              {
                OFFSET 13.0012 0 0
                CHANNELS 3 Zrotation Xrotation Yrotation
                JOINT RightForeArm
                {
                  OFFSET 28.7848 1.52588e-005 0
                  CHANNELS 3 Zrotation Xrotation Yrotation
                  JOINT RightHand
                  {
                    OFFSET 26.5688 1.52588e-005 0
                    CHANNELS 3 Zrotation Xrotation Yrotation
                    End Site
                    {
                      OFFSET 0 0 0
                    }
                  }
                }
              }
            }
            JOINT LeftShoulder
            {
              OFFSET 2.38034 -1.29275 -3.7523
              CHANNELS 3 Zrotation Xrotation Yrotation
              JOINT LeftArm
              {
                OFFSET 16.3182 6.10351e-005 0
                CHANNELS 3 Zrotation Xrotation Yrotation
                JOINT LeftForeArm
                {
                  OFFSET 27.0901 0 0
                  CHANNELS 3 Zrotation Xrotation Yrotation
                  JOINT LeftHand
                  {
                    OFFSET 24.5451 1.52588e-005 0
                    CHANNELS 3 Zrotation Xrotation Yrotation
                    End Site
                    {
                      OFFSET 0 0 0
                    }
                  }
                }
              }
            }
            JOINT Neck
            {
              OFFSET 5.0226 -0.0266342 0
              CHANNELS 3 Zrotation Xrotation Yrotation
              JOINT Head
              {
                OFFSET 6.69363 2.86102e-005 0
                CHANNELS 3 Zrotation Xrotation Yrotation
                End Site
                {
                  OFFSET 0 0 0
                }
              }
            }
          }
        }
      }
    }
  }
}
MOTION
Frames:	18
Frame Time:	0.0416667
182.314 100.292 -189.544 99.0103 53.2275 84.5877 -176.976 6.42567 88.9391 -20.0865 20.8662 2.80267 56.6185 2.61532 14.3304 40.7402 -1.41006 -0.0734135 175.883 9.79423 88.9352 -26.6654 -7.11606 -0.205273 61.4834 4.24459 10.8816 28.5762 0.829724 4.90141 0.00847981 8.07875 -90.2491 10.7159 -0.0978657 -0.486241 -0.955125 -0.119177 -0.481462 -23.4896 0.0527912 -0.493174 -3.47692 0.0527884 -0.493176 100.023 -54.4102 -85.3382 27.7744 -13.6546 -7.75892 -1.62772 -7.21753 -17.9324 -12.1805 -0.634114 0.89686 -84.9115 -56.519 86.9126 -20.2694 11.5114 -22.9386 1.27519 17.309 -13.7169 -1.17491 -0.131878 -8.32583 -23.1608 -11.1206 16.2158 26.9249 -16.1589 -21.469 
179.451 97.6754 -186.081 98.0351 54.3466 83.1607 179.939 16.5475 85.9174 -32.1761 18.1873 3.05256 57.124 3.32164 14.6552 43.3934 -1.66574 0.241468 174.829 22.1835 86.3467 -41.4244 -6.98239 0.129942 60.9165 5.24502 13.0581 27.3511 0.959686 4.13766 0.17308 8.66077 -90.14 9.55138 0.281842 -0.29646 -2.11958 0.268523 -0.308582 -24.6547 0.357902 -0.198051 -4.6421 0.357908 -0.198055 100.074 -52.0326 -85.354 30.2067 -13.6034 -6.69991 -1.37355 -4.76273 -20.6013 -15.1558 -0.748782 0.557995 -85.7581 -56.4057 85.7091 -17.2032 13.8669 -25.9953 3.71153 17.0403 -21.2396 1.63952 -0.219068 -8.07124 -4.66115 -8.98112 31.3732 5.05728 -15.3828 -39.1732 
175.737 93.1751 -181.486 97.8435 61.1763 80.537 178.298 33.4588 83.068 -49.4397 20.3294 1.99218 52.2092 -1.73455 7.22888 42.0804 -1.38398 0.87744 172.635 34.9866 81.7374 -53.7539 -13.3275 1.24261 56.8552 5.87612 8.61802 38.0536 -0.478367 6.95909 -0.0135269 9.71405 -90.4412 7.45298 -0.217762 -0.878119 -4.21818 -0.256209 -0.86769 -26.7517 0.0562114 -0.902962 -6.73901 0.0562313 -0.902966 99.1789 -48.1642 -86.9369 31.6295 -9.60202 -7.49596 -2.79148 -1.79577 -29.7708 -14.6569 -0.72163 0.561596 -88.8688 -59.5054 81.868 -10.6687 13.9025 -32.5742 5.9803 14.4975 -29.431 3.73917 -0.381585 -9.6864 30.1805 4.77538 50.5311 -33.1006 -0.778493 -59.3853 
172.601 88.5692 -176.893 104.421 63.7484 75.1426 -177.752 44.3275 82.9741 -64.2879 22.6461 0.597478 49.3493 -3.84618 5.09506 39.1653 -0.579188 4.08313 172.977 41.1311 80.8398 -61.4539 -15.8117 1.13819 50.8281 8.7401 7.07233 52.4722 -3.18739 6.92623 0.123284 11.0217 -91.0824 4.82106 -0.197389 -2.11748 -6.8516 -0.290365 -2.10676 -29.373 0.447961 -2.07897 -9.36033 0.447967 -2.07896 99.401 -50.4035 -86.4602 22.8 -3.51916 -18.0761 -5.62717 -1.57216 -41.0191 -12.2583 -0.467503 -0.814955 -92.5708 -58.1837 76.5609 -15.5731 8.53431 -37.0502 2.02827 6.6871 -20.4196 10.1638 -0.934986 -12.0404 48.0653 11.8735 52.0951 -50.5095 9.06932 -65.1841 
168.841 84.7123 -173.832 107.733 60.5929 74.9536 -179.126 47.706 86.7371 -85.892 19.0183 2.2461 54.8316 0.535807 6.87522 43.5812 -0.607237 5.70498 173.746 45.0712 83.203 -66.1124 -16.1544 0.622435 51.6248 7.78251 5.92694 47.8736 -2.45874 6.44574 0.0175457 11.7483 -91.696 3.35599 -0.639339 -3.32036 -8.31896 -0.784794 -3.28905 -30.8202 0.387504 -3.35903 -10.8076 0.387509 -3.35904 98.4067 -47.9747 -88.1816 17.1767 -1.65787 -27.4596 -7.42726 0.243863 -58.7109 -13.301 -0.289603 -2.73152 -97.5227 -59.237 70.1464 -11.7522 6.7501 -35.8726 -1.71048 6.48626 -10.2561 6.00867 -0.53597 -10.4439 55.2413 18.2268 52.9105 -58.458 15.9654 -65.0892 
164.771 82.8176 -170.679 113.646 62.7072 71.7011 172.598 40.6514 93.5525 -100.027 15.6955 3.44818 54.152 1.02073 8.02587 49.1849 -0.779869 6.57881 172.178 44.8154 83.7398 -65.0921 -16.8566 1.54303 55.2841 4.71711 2.09666 41.2148 -2.16067 2.978 -0.357348 11.6076 -91.8041 3.62107 -1.43538 -3.53116 -8.05372 -1.5893 -3.46468 -30.5508 -0.308641 -3.79891 -10.5382 -0.308652 -3.79891 99.4056 -49.6285 -86.4977 19.2045 -4.25997 -17.8036 -5.34093 1.03002 -52.7427 -12.9023 -0.122209 -4.19302 -97.189 -58.0205 70.2544 -7.07551 5.4204 -38.4847 -1.1235 3.37604 -18.1024 6.83728 -0.605407 -10.7629 53.0547 16.3375 50.4852 -57.249 14.8443 -62.4825 
158.964 86.1857 -164.807 118.587 68.5131 65.6498 169.793 33.32 94.8844 -94.1831 14.8699 4.61374 59.0377 5.5703 10.888 44.6094 -0.983623 4.08084 172.939 37.6792 78.2642 -43.9369 -13.5071 2.01412 50.6874 9.30583 8.39588 25.3783 0.724373 -1.10123 -0.978096 11.2483 -91.2594 4.3522 -2.46605 -2.45162 -7.31824 -2.57157 -2.34074 -29.8458 -1.61545 -3.079 -9.83317 -1.61544 -3.079 99.6241 -55.4141 -85.8742 26.4685 -8.61523 4.8524 1.33714 6.05372 -36.9805 -10.7153 -0.149902 -4.02162 -93.099 -50.8484 74.0421 -9.2007 2.17861 -47.8552 8.60763 2.54072 -48.1817 9.8594 -0.844755 -11.3175 46.0915 10.143 45.1347 -47.5765 7.0384 -56.691 
148.468 91.5263 -157.417 105.678 64.178 75.0324 173.569 34.2732 88.3645 -75.3617 23.2332 4.47847 59.3978 2.30763 5.60961 45.435 -2.14392 -0.737908 173.912 33.9295 75.8492 -23.718 -11.7105 1.62545 35.8382 17.2696 22.4551 33.1992 -2.06876 -4.53299 -0.495472 11.06 -90.8139 4.73858 -1.32325 -1.58111 -6.93277 -1.39153 -1.52136 -29.461 -0.787066 -1.90559 -9.44837 -0.787049 -1.90558 96.9313 -56.3789 -89.7316 30.5367 -7.43732 13.5364 7.54248 13.8795 -35.7042 -13.1406 -0.0947978 -4.5766 -91.6213 -49.8199 75.9942 -11.3606 1.49725 -50.901 16.5128 2.57123 -63.8384 13.9642 -0.778527 -9.2674 40.551 9.32095 48.3455 -36.3787 -0.456027 -54.1102 
137.294 89.5346 -150.983 108.822 47.1445 77.3438 175.509 28.5372 87.7621 -64.5459 28.5009 5.18197 57.5693 2.90979 12.9949 52.8666 -2.02827 2.94249 172.012 40.6431 80.2151 -80.8147 -14.5411 -1.42189 48.3861 10.1889 11.4701 36.6553 -1.76951 0.495495 0.199495 11.402 -90.4247 4.07002 0.227113 -0.832868 -7.60117 0.190224 -0.842069 -30.1348 0.466906 -0.726119 -10.1221 0.46691 -0.726122 99.5015 -55.1481 -86.075 23.749 -2.63695 -3.14578 4.13301 7.38794 -52.7345 -13.9721 -0.0168961 -5.18058 -90.6045 -53.3459 78.2887 -12.6485 1.32388 -23.9022 10.4898 4.59651 -44.5785 15.4221 -1.00576 -10.2114 35.5604 6.11117 26.2488 -22.8943 -1.54226 -28.2532 
126.31 87.7332 -143.657 104.945 35.2767 81.0043 178.646 31.5153 87.6897 -53.9098 23.7794 3.65784 55.6478 3.77767 19.065 46.632 -1.06187 4.39373 177.981 38.1932 79.3302 -106.758 -24.629 -3.40444 49.5863 7.83785 7.74876 46.8413 -2.3339 6.42739 0.454056 10.9344 -89.7953 4.99945 0.991365 0.38853 -6.67125 1.0075 0.344514 -29.2073 0.828772 0.668515 -9.19469 0.82876 0.668506 100.312 -48.9947 -85.1036 24.8826 -8.94401 -15.9707 -13.7857 0.504062 -86.8056 -14.8022 0.0197468 -5.63681 -89.8668 -59.7272 80.5559 -15.9532 7.61932 7.35311 1.77034 3.39862 -27.2078 13.764 -0.488602 -7.28534 36.04 4.80794 11.177 -21.4574 1.27537 -11.5854 
113.894 91.6213 -131.145 98.0241 38.1007 87.094 176.7 35.5611 94.0119 -35.0322 21.9784 4.53886 42.8539 -10.0313 -2.13503 42.0797 -0.0994176 6.43016 168.927 31.4925 89.8065 -75.9003 -27.5081 1.51139 50.6343 8.97426 9.79 49.5282 -2.98137 6.12303 0.715149 10.7175 -90.0516 5.44135 1.40715 -0.127613 -6.22887 1.40018 -0.189449 -28.7699 1.38044 0.301272 -8.7573 1.38045 0.301264 99.8182 -47.3284 -85.9564 22.5642 -20.1273 -15.5184 -20.0791 10.0652 -85.7039 -12.4405 -0.225677 -3.97003 -90.9503 -58.6621 78.881 -19.0807 7.15886 6.02719 0.712477 1.26999 -26.3984 10.4364 -0.7668 -10.3327 33.9313 2.468 11.0617 -14.6405 -1.881 -6.85373 
101.451 89.8355 -118.289 105.874 49.5821 79.9006 176.083 38.4893 92.0167 -73.9228 12.3135 3.73091 47.2286 -4.96379 0.928335 51.7705 0.449525 11.9082 166.656 28.3771 91.6582 -61.5233 -20.7152 5.14068 56.3076 3.61224 0.864295 48.937 -2.58634 6.88326 0.143223 11.2265 -90.2846 4.42158 0.170465 -0.563986 -7.24945 0.14548 -0.570935 -29.7842 0.332092 -0.486687 -9.77157 0.332072 -0.486687 99.5028 -50.7507 -86.2806 25.3396 -17.8749 -7.81246 -16.5273 -1.52999 -56.8255 -11.126 -0.158947 -3.82986 -92.0297 -56.3714 76.9149 -8.92194 5.90108 -20.8264 5.61264 8.1161 -30.2103 11.2506 -0.77816 -10.1244 30.0285 0.448876 7.11626 -14.4344 -2.04702 -4.53623 
88.6356 90.054 -105.614 104.173 55.7217 79.9985 176.825 33.5183 93.8848 -98.3956 13.2706 3.38624 48.2744 -1.89752 7.93815 42.4446 -0.720892 4.68676 167.889 34.2399 90.0447 -47.5358 -15.7973 7.93087 59.6261 1.65519 -0.712261 24.4513 1.10402 0.69875 -0.695589 10.8625 -90.1226 5.14719 -1.44037 -0.213788 -6.52296 -1.4484 -0.15017 -29.0635 -1.30954 -0.636872 -9.05085 -1.30951 -0.636864 100.117 -54.1788 -85.2071 33.098 -10.056 10.2425 -11.2006 -5.78142 -45.5066 -12.1883 -0.3254 -2.15001 -90.1477 -53.5793 78.9954 -4.57718 -0.0624736 -35.1488 10.3736 1.96131 -52.961 10.6996 -1.0091 -12.3744 28.7782 0.23952 -0.0398614 -16.5006 -0.0178598 2.36079 
72.8143 93.9593 -92.3588 94.6982 51.8113 84.5177 179.362 27.3267 88.9892 -74.763 21.2064 3.23703 53.3479 -1.57207 4.93923 51.6954 -1.3059 5.33188 174.088 33.507 84.6193 -21.1984 -10.6947 3.34745 34.5413 18.1164 21.6732 29.8674 -0.967652 -4.27212 -0.71928 10.8625 -89.6539 5.15149 -1.29411 0.70543 -6.51914 -1.26182 0.761693 -29.0583 -1.44629 0.283821 -9.04568 -1.4463 0.283816 97.2431 -52.6455 -89.599 35.1089 -14.7751 14.7642 -3.06381 2.82133 -44.0435 -7.66628 0.105461 -7.03263 -89.2945 -51.329 79.7932 -1.05039 -1.07404 -36.5291 13.3844 -0.703354 -66.5903 14.0622 -0.951461 -10.3262 38.8912 1.25357 -1.78695 -23.4182 1.05756 5.80326 
56.9249 90.6338 -80.1152 97.4997 40.3509 83.4785 -178.8 25.9377 87.0249 -60.8381 26.3095 2.40914 58.9701 3.17232 10.0775 56.2633 -2.17358 3.47677 172.513 39.8557 83.5262 -80.9263 -19.9609 -0.225289 46.1816 11.5878 13.0676 35.0646 -1.1738 1.52984 -0.0764881 10.9833 -89.5718 4.90635 0.0233014 0.839226 -6.76481 0.0602061 0.837382 -29.2984 -0.229996 0.807431 -9.28571 -0.230001 0.807431 98.3167 -50.3522 -88.1423 28.5078 -16.0989 -0.74602 -6.39518 1.88888 -57.9763 -8.9814 0.0023903 -5.45776 -90.3433 -55.551 79.1075 -4.31434 3.82359 -17.7141 8.87179 3.42773 -45.5464 12.3259 -0.978674 -11.2985 30.2141 3.52131 -2.10571 -16.9636 3.2481 8.10688 
42.1675 89.3075 -67.2119 96.5068 34.1685 85.1751 179.856 32.9767 88.8731 -51.1119 23.9621 3.0445 57.3276 2.93115 15.3167 47.4499 -1.69989 1.86984 179.994 29.0934 81.281 -98.367 -30.6632 -4.13894 49.0329 9.07958 9.12975 49.7343 -3.57821 4.40616 0.455142 10.5083 -89.5833 5.85207 1.08402 0.787122 -5.81869 1.11761 0.738645 -28.3537 0.797368 1.07652 -8.34104 0.797354 1.07651 99.9015 -48.2941 -85.7748 29.1547 -18.1551 -6.63388 -14.3202 8.73529 -84.8078 -11.1119 -0.253302 -2.65534 -89.2999 -59.3013 81.2412 -14.8306 10.0656 10.1748 3.30034 5.49969 -31.5864 8.66775 -0.476402 -8.16536 23.5357 2.60936 -5.53502 -10.9362 3.5488 14.3108 
27.2425 93.5348 -50.1069 90.5799 40.0865 89.6741 177.984 35.715 93.5031 -25.8823 21.9353 3.4604 40.4162 -11.5444 -6.55303 49.8083 -0.164638 9.12191 175.637 23.3029 89.176 -70.9754 -18.1787 -1.56744 55.6885 7.80765 15.0112 41.3577 -2.29726 2.63448 0.322079 10.3522 -89.8562 6.16858 0.704194 0.260378 -5.5022 0.714975 0.229122 -28.0383 0.593386 0.459984 -8.02566 0.593388 0.459984 101.017 -49.5058 -83.9705 25.1986 -24.1422 -7.99281 -17.867 6.76103 -78.4776 -9.84269 -0.0788098 -4.45388 -90.1457 -57.1731 79.6997 -18.0677 8.774 12.6564 2.70749 3.67652 -31.6445 6.07736 -0.505576 -9.98397 37.6448 3.29055 -0.98529 -24.8619 2.13982 7.66707 
11.2837 90.133 -33.5498 98.9845 51.7548 83.0938 178.216 39.4985 90.9605 -75.6573 13.2105 2.97348 47.6331 -4.25582 5.32122 51.033 0.346905 11.1024 170.301 23.9715 92.1424 -60.5996 -15.7733 2.84187 59.027 3.90176 5.84653 54.5795 -3.45999 7.25568 -0.294026 10.9429 -90.4466 4.9842 -0.771815 -0.856812 -6.68677 -0.80875 -0.822023 -29.2206 -0.478644 -1.04915 -9.20794 -0.478639 -1.04914 101.176 -50.4565 -83.7015 24.9808 -18.5359 -3.16567 -13.9837 -2.64418 -54.6409 -9.88438 -0.107531 -4.04159 -89.7576 -56.5364 80.1155 -6.05147 8.66005 -11.0674 3.94839 2.90277 -36.4137 8.29007 -0.752364 -11.4894 33.547 0.756681 -0.741638 -20.1681 -0.053601 7.59571 
